<?xml version="1.0" standalone="no"?>
<svg xmlns:xlink="http://www.w3.org/1999/xlink" id="wave" style="transform:rotate(180deg); transition: 0.3s" viewBox="0 0 1440 100" version="1.1" xmlns="http://www.w3.org/2000/svg"><defs><linearGradient id="sw-gradient-0" x1="0" x2="0" y1="1" y2="0"><stop stop-color="rgba(255, 249, 234, 1)" offset="0%"/><stop stop-color="rgba(255, 249, 234, 1)" offset="100%"/></linearGradient></defs><path style="transform:translate(0, 0px); opacity:1" fill="url(#sw-gradient-0)" d="M0,10L26.7,16.7C53.3,23,107,37,160,48.3C213.3,60,267,70,320,63.3C373.3,57,427,33,480,35C533.3,37,587,63,640,65C693.3,67,747,43,800,31.7C853.3,20,907,20,960,28.3C1013.3,37,1067,53,1120,50C1173.3,47,1227,23,1280,18.3C1333.3,13,1387,27,1440,40C1493.3,53,1547,67,1600,70C1653.3,73,1707,67,1760,53.3C1813.3,40,1867,20,1920,13.3C1973.3,7,2027,13,2080,23.3C2133.3,33,2187,47,2240,58.3C2293.3,70,2347,80,2400,70C2453.3,60,2507,30,2560,25C2613.3,20,2667,40,2720,41.7C2773.3,43,2827,27,2880,18.3C2933.3,10,2987,10,3040,13.3C3093.3,17,3147,23,3200,28.3C3253.3,33,3307,37,3360,46.7C3413.3,57,3467,73,3520,81.7C3573.3,90,3627,90,3680,86.7C3733.3,83,3787,77,3813,73.3L3840,70L3840,100L3813.3,100C3786.7,100,3733,100,3680,100C3626.7,100,3573,100,3520,100C3466.7,100,3413,100,3360,100C3306.7,100,3253,100,3200,100C3146.7,100,3093,100,3040,100C2986.7,100,2933,100,2880,100C2826.7,100,2773,100,2720,100C2666.7,100,2613,100,2560,100C2506.7,100,2453,100,2400,100C2346.7,100,2293,100,2240,100C2186.7,100,2133,100,2080,100C2026.7,100,1973,100,1920,100C1866.7,100,1813,100,1760,100C1706.7,100,1653,100,1600,100C1546.7,100,1493,100,1440,100C1386.7,100,1333,100,1280,100C1226.7,100,1173,100,1120,100C1066.7,100,1013,100,960,100C906.7,100,853,100,800,100C746.7,100,693,100,640,100C586.7,100,533,100,480,100C426.7,100,373,100,320,100C266.7,100,213,100,160,100C106.7,100,53,100,27,100L0,100Z"/></svg>